<mxfile host="app.diagrams.net" modified="2021-05-27T09:59:23.674Z" agent="5.0 (Windows NT 10.0; Win64; x64) AppleWebKit/537.36 (KHTML, like Gecko) Chrome/90.0.4430.212 Safari/537.36" etag="WfzoQQk-IrNBKWxC-jx3" version="14.7.2" type="github">
  <diagram id="CGK6dP2NKaerPSv48ubt" name="Page-1">
    <mxGraphModel dx="1422" dy="794" grid="1" gridSize="10" guides="1" tooltips="1" connect="1" arrows="1" fold="1" page="1" pageScale="1" pageWidth="827" pageHeight="1169" math="0" shadow="0">
      <root>
        <mxCell id="0" />
        <mxCell id="1" parent="0" />
        <mxCell id="i0rgtF_RT_bJAH0_wHCv-4" value="" style="edgeStyle=orthogonalEdgeStyle;rounded=0;orthogonalLoop=1;jettySize=auto;html=1;entryX=0.5;entryY=0;entryDx=0;entryDy=0;" parent="1" source="i0rgtF_RT_bJAH0_wHCv-1" target="i0rgtF_RT_bJAH0_wHCv-3" edge="1">
          <mxGeometry relative="1" as="geometry" />
        </mxCell>
        <mxCell id="i0rgtF_RT_bJAH0_wHCv-1" value="微信授权登录" style="rounded=0;whiteSpace=wrap;html=1;" parent="1" vertex="1">
          <mxGeometry x="260" y="280" width="120" height="60" as="geometry" />
        </mxCell>
        <mxCell id="fZd7jMqDWU0_LgG65QuV-3" value="是" style="edgeStyle=orthogonalEdgeStyle;rounded=0;orthogonalLoop=1;jettySize=auto;html=1;" parent="1" source="i0rgtF_RT_bJAH0_wHCv-3" target="fZd7jMqDWU0_LgG65QuV-2" edge="1">
          <mxGeometry relative="1" as="geometry">
            <Array as="points">
              <mxPoint x="320" y="510" />
              <mxPoint x="320" y="510" />
            </Array>
          </mxGeometry>
        </mxCell>
        <mxCell id="fZd7jMqDWU0_LgG65QuV-6" value="否" style="edgeStyle=orthogonalEdgeStyle;rounded=0;orthogonalLoop=1;jettySize=auto;html=1;" parent="1" source="i0rgtF_RT_bJAH0_wHCv-3" target="fZd7jMqDWU0_LgG65QuV-5" edge="1">
          <mxGeometry relative="1" as="geometry" />
        </mxCell>
        <mxCell id="i0rgtF_RT_bJAH0_wHCv-3" value="&lt;span style=&quot;font-size: 11px ; background-color: rgb(255 , 255 , 255)&quot;&gt;用户是否绑定过微信平台？&lt;/span&gt;" style="rhombus;whiteSpace=wrap;html=1;" parent="1" vertex="1">
          <mxGeometry x="265" y="400" width="110" height="70" as="geometry" />
        </mxCell>
        <mxCell id="fZd7jMqDWU0_LgG65QuV-2" value="进入个人资料页" style="whiteSpace=wrap;html=1;" parent="1" vertex="1">
          <mxGeometry x="260" y="555" width="120" height="60" as="geometry" />
        </mxCell>
        <mxCell id="3rpgMz8QcosWbd1gooYR-3" style="edgeStyle=orthogonalEdgeStyle;rounded=0;orthogonalLoop=1;jettySize=auto;html=1;entryX=1;entryY=0.5;entryDx=0;entryDy=0;" edge="1" parent="1" source="fZd7jMqDWU0_LgG65QuV-5" target="fZd7jMqDWU0_LgG65QuV-2">
          <mxGeometry relative="1" as="geometry">
            <Array as="points">
              <mxPoint x="510" y="585" />
            </Array>
          </mxGeometry>
        </mxCell>
        <mxCell id="3rpgMz8QcosWbd1gooYR-4" value="登录成功" style="edgeLabel;html=1;align=center;verticalAlign=middle;resizable=0;points=[];" vertex="1" connectable="0" parent="3rpgMz8QcosWbd1gooYR-3">
          <mxGeometry x="-0.328" y="-1" relative="1" as="geometry">
            <mxPoint x="1" y="-29" as="offset" />
          </mxGeometry>
        </mxCell>
        <mxCell id="fZd7jMqDWU0_LgG65QuV-5" value="进入登录页登录" style="whiteSpace=wrap;html=1;" parent="1" vertex="1">
          <mxGeometry x="450" y="405" width="120" height="60" as="geometry" />
        </mxCell>
        <mxCell id="fZd7jMqDWU0_LgG65QuV-16" value="无" style="edgeStyle=orthogonalEdgeStyle;rounded=0;orthogonalLoop=1;jettySize=auto;html=1;entryX=0.5;entryY=0;entryDx=0;entryDy=0;" parent="1" source="fZd7jMqDWU0_LgG65QuV-11" target="i0rgtF_RT_bJAH0_wHCv-1" edge="1">
          <mxGeometry relative="1" as="geometry" />
        </mxCell>
        <mxCell id="fZd7jMqDWU0_LgG65QuV-17" value="有" style="edgeStyle=orthogonalEdgeStyle;rounded=0;orthogonalLoop=1;jettySize=auto;html=1;" parent="1" source="fZd7jMqDWU0_LgG65QuV-11" edge="1">
          <mxGeometry x="0.2157" relative="1" as="geometry">
            <mxPoint x="160" y="580" as="targetPoint" />
            <mxPoint as="offset" />
          </mxGeometry>
        </mxCell>
        <mxCell id="fZd7jMqDWU0_LgG65QuV-11" value="读取用户本地token" style="whiteSpace=wrap;html=1;rounded=0;" parent="1" vertex="1">
          <mxGeometry x="260" y="140" width="120" height="60" as="geometry" />
        </mxCell>
        <mxCell id="fZd7jMqDWU0_LgG65QuV-21" value="" style="endArrow=classic;html=1;" parent="1" edge="1">
          <mxGeometry relative="1" as="geometry">
            <mxPoint x="160" y="580" as="sourcePoint" />
            <mxPoint x="260" y="580" as="targetPoint" />
          </mxGeometry>
        </mxCell>
        <mxCell id="fZd7jMqDWU0_LgG65QuV-23" value="用户直接进入个人资料页面" style="text;html=1;align=center;verticalAlign=middle;resizable=0;points=[];autosize=1;strokeColor=none;" parent="1" vertex="1">
          <mxGeometry x="340" y="60" width="160" height="20" as="geometry" />
        </mxCell>
      </root>
    </mxGraphModel>
  </diagram>
</mxfile>
